Results	
version=1	
nRows=91	
nColumns=2	
inDegrees=yes	
endheader	
time	AngleRotation
0	-90
0.01	-88
0.02	-86
0.03	-84
0.04	-82
0.05	-80
0.06	-78
0.07	-76
0.08	-74
0.09	-72
0.1	-70
0.11	-68
0.12	-66
0.13	-64
0.14	-62
0.15	-60
0.16	-58
0.17	-56
0.18	-54
0.19	-52
0.2	-50
0.21	-48
0.22	-46
0.23	-44
0.24	-42
0.25	-40
0.26	-38
0.27	-36
0.28	-34
0.29	-32
0.3	-30
0.31	-28
0.32	-26
0.33	-24
0.34	-22
0.35	-20
0.36	-18
0.37	-16
0.38	-14
0.39	-12
0.4	-10
0.41	-8
0.42	-6
0.43	-4
0.44	-2
0.45	0
0.46	2
0.47	4
0.48	6
0.49	8
0.5	10
0.51	12
0.52	14
0.53	16
0.54	18
0.55	20
0.56	22
0.57	24
0.58	26
0.59	28
0.6	30
0.61	32
0.62	34
0.63	36
0.64	38
0.65	40
0.66	42
0.67	44
0.68	46
0.69	48
0.7	50
0.71	52
0.72	54
0.73	56
0.74	58
0.75	60
0.76	62
0.77	64
0.78	66
0.79	68
0.8	70
0.81	72
0.82	74
0.83	76
0.84	78
0.85	80
0.86	82
0.87	84
0.88	86
0.89	88
0.9	90
